# AST/ASF file generated using VICON BodyLanguage
# -----------------------------------------------
:version 1.10
:name VICON
:units
  mass 1.0
  length 0.45
  angle deg
:documentation
   .ast/.asf automatically generated from VICON data using
   VICON BodyBuilder and BodyLanguage model FoxedUp or BRILLIANT.MOD
:root
   order TX TY TZ RX RY RZ
   axis XYZ
   position 0 0 0  
   orientation 0 0 0 
:bonedata
  begin
     id 1 
     name lhipjoint
     direction 0.561001 -0.76473 0.316963 
     length 2.4722 
     axis 0 0 0  XYZ
  end
  begin
     id 2 
     name lfemur
     direction 0.34202 -0.939693 0  
     length 7.59403  
     axis 0 0 20  XYZ
    dof rx ry rz
    limits (-160.0 20.0)
           (-70.0 70.0)
           (-60.0 70.0)
  end
  begin
     id 3 
     name ltibia
     direction 0.34202 -0.939693 0   
     length 7.89655   
     axis 0 0 20   XYZ
    dof rx
    limits (-10.0 170.0)
  end
  begin
     id 4 
     name lfoot
     direction 0.061296 -0.168409 0.98381   
     length 2.73287   
     axis -90 7.62852e-016 20   XYZ
    dof rx rz
    limits (-45.0 90.0)
           (-70.0 20.0)
  end
  begin
     id 5 
     name ltoes
     direction 1.53547e-011 -4.21984e-011 1   
     length 1.37057   
     axis -90 7.62852e-016 20   XYZ
    dof rx
    limits (-90.0 20.0)
  end
  begin
     id 6 
     name rhipjoint
     direction -0.559611 -0.765599 0.317323   
     length 2.46939  
     axis 0 0 0  XYZ 
  end
  begin
     id 7 
     name rfemur
     direction -0.34202 -0.939693 0   
     length 7.53712   
     axis 0 0 -20   XYZ
    dof rx ry rz
    limits (-160.0 20.0)
           (-70.0 70.0)
           (-70.0 60.0)
  end
  begin
     id 8 
     name rtibia
     direction -0.34202 -0.939693 0   
     length 8.12549   
     axis 0 0 -20   XYZ
    dof rx
    limits (-10.0 170.0)
 end
 begin
     id 9 
     name rfoot
     direction -0.066984 -0.184037 0.980634   
     length 2.67541  
     axis -90 -7.62852e-016 -20   XYZ
    dof rx rz
    limits (-45.0 90.0)
           (-20.0 70.0)
  end
  begin
     id 10 
     name rtoes
     direction -1.53549e-011 -4.21786e-011 1   
     length 1.34085   
     axis -90 -7.62852e-016 -20   XYZ
    dof rx
    limits (-90.0 20.0)
  end
  begin
     id 11 
     name lowerback
     direction -0.0522728 0.992594 -0.109658   
     length 2.05633   
     axis 0 0 0   XYZ
    dof rx ry rz
    limits (-20.0 45.0)
           (-30.0 30.0)
           (-30.0 30.0)
  end
  begin
     id 12 
     name upperback
     direction 0.00589338 0.999977 0.00335704   
     length 2.05845   
     axis 0 0 0   XYZ
    dof rx ry rz
    limits (-20.0 45.0)
           (-30.0 30.0)
           (-30.0 30.0)
  end
  begin
     id 13 
     name thorax
     direction 0.0292928 0.998059 0.0549487   
     length 2.09281   
     axis 0 0 0   XYZ
    dof rx ry rz
    limits (-20.0 45.0)
           (-30.0 30.0)
           (-30.0 30.0)
  end
  begin
     id 14 
     name lowerneck
     direction 0.0356368 0.980775 0.191858   
     length 1.84767   
     axis 0 0 0   XYZ
    dof rx ry rz
    limits (-20.0 45.0)
           (-30.0 30.0)
           (-30.0 30.0)
  end
  begin
     id 15 
     name upperneck
     direction -0.0227605 0.98931 -0.14404   
     length 1.89582   
     axis 0 0 0   XYZ
    dof rx ry rz
    limits (-20.0 45.0)
           (-30.0 30.0)
           (-30.0 30.0)
  end
  begin
     id 16
     name head
     direction -0.00932985 0.997511 -0.0698904  
     length 1.90213  
     axis 0 0 0   XYZ
    dof rx ry rz
    limits (-20.0 45.0)
           (-30.0 30.0)
           (-30.0 30.0)
  end
  begin
     id 17 
     name lclavicle
     direction 0.873442 0.479511 0.0846686  
     length 3.41193  
     axis 0 0 0   XYZ
    dof ry rz
    limits (-20.0 10.0)
           (0.0 20.0)
  end
  begin
     id 18 
     name lhumerus
     direction 1 -4.4897e-011 -5.62117e-018   
     length 5.59864   
     axis 180 -30 -90   XYZ
    dof rx ry rz
    limits (-60.0 90.0)
           (-90.0 90.0)
           (-90.0 90.0)
  end
  begin
     id 19
     name lradius
     direction 1 -4.48966e-011 -6.26295e-027   
     length 3.59542   
     axis 180 -30 -90   XYZ
    dof rx
    limits (-10.0 170.0)
  end
  begin
     id 20
     name lwrist
     direction 1 -4.48947e-011 -1.74096e-026   
     length 1.79771   
     axis 1.04567e-014 90 90   XYZ
    dof ry
    limits (-180.0 0.0)
 end
  begin
     id 21 
     name lhand
     direction 1 -4.49085e-011 -3.48469e-026   
     length 0.572014   
     axis 2.22196e-014 90 90   XYZ
    dof rx rz
    limits (-90.0 90.0)
           (-45.0 45.0)
  end
  begin
     id 22 
     name lfingers
     direction 1 -4.48884e-011 -6.96135e-026   
     length 0.461173   
     axis 4.44383e-014 90 90   XYZ
    dof rx
    limits (0.0 90.0)
  end
  begin
     id 23
     name lthumb
     direction 0.707107 -6.34976e-011 0.707107   
     length 0.662154   
     axis -90 45 -5.4397e-014   XYZ
    dof rx rz
    limits (-45.0 45.0)
           (-45.0 45.0)
  end
  begin
     id 24 
     name rclavicle
     direction -0.890242 0.443271 0.104786   
     length 3.46753  
     axis 0 0 0   XYZ 
    dof ry rz
    limits (-10.0 20.0)
           (-20.0 0.0)
  end
  begin
     id 25 
     name rhumerus
     direction -1 -4.48963e-011 -5.41723e-018  
     length 5.8094   
     axis 180 30 90   XYZ
    dof rx ry rz
    limits (-90.0 60.0)
           (-90.0 90.0)
           (-90.0 90.0)
  end
  begin
     id 26 
     name rradius
     direction -1 -4.48958e-011 -6.51059e-027   
     length 3.66953   
     axis 180 30 90   XYZ
    dof rx
    limits (-10.0 170.0)
  end
  begin
     id 27 
     name rwrist
     direction -1 -4.48975e-011 -1.74124e-026   
     length 1.83476   
     axis 1.04567e-014 -90 -90   XYZ
    dof ry
    limits (-180.0 0.0)
  end
  begin
     id 28
     name rhand
     direction -1 -4.49013e-011 -3.48326e-026   
     length 0.57843   
     axis 2.22196e-014 -90 -90   XYZ
    dof rx rz
    limits (-90.0 90.0)
           (-45.0 45.0)
  end
  begin
     id 29
     name rfingers
     direction -1 -4.49023e-011 -6.9669e-026   
     length 0.466345   
     axis 4.44383e-014 -90 -90   XYZ
    dof rx
    limits (0.0 90.0)
  end
  begin
     id 30
     name rthumb
     direction -0.707107 -6.34926e-011 0.707107   
     length 0.669581   
     axis -90 -45 5.4397e-014   XYZ
    dof rx rz
    limits (-45.0 45.0)
           (-45.0 45.0)
  end
:hierarchy
  begin
    root lhipjoint rhipjoint lowerback
    lhipjoint lfemur
    lfemur ltibia
    ltibia lfoot
    lfoot ltoes
    rhipjoint rfemur
    rfemur rtibia
    rtibia rfoot
    rfoot rtoes
    lowerback upperback
    upperback thorax
    thorax lowerneck lclavicle rclavicle
    lowerneck upperneck
    upperneck head
    lclavicle lhumerus
    lhumerus lradius
    lradius lwrist
    lwrist lhand lthumb
    lhand lfingers
    rclavicle rhumerus
    rhumerus rradius
    rradius rwrist
    rwrist rhand rthumb
    rhand rfingers
  end

#!OML:ASF H:\SkateBoarding\Project 1\Capture day 1\Session 1\Skater.ASF
:FULLY-SPECIFIED
:DEGREES
308
root 4.03093 19.5018 37.168 2.85547 71.5565 -9.77827
lowerback 24.9059 -2.63938 -2.09359
upperback 3.86551 -3.87919 -1.37574
thorax -9.51977 -1.67555 0.908154
lowerneck -16.4054 -0.735278 8.72222
upperneck 41.3852 -3.84674 1.99648
head 18.2297 0.474571 -1.25886
rclavicle -3.49861e-014 3.18055e-015
rhumerus -40.6121 -30.0383 31.4037
rradius 51.6685
rwrist -55.3737
rhand -53.4201 -22.6847
rfingers 7.12502
rthumb -25.8682 -50.9452
lclavicle -3.49861e-014 3.18055e-015
lhumerus -60.8155 15.0327 -4.7404
lradius 39.7746
lwrist 48.2221
lhand -29.5629 41.3625
lfingers 7.12502
lthumb -2.89534 71.3226
rfemur -35.2518 6.52241 12.178
rtibia 36.0708
rfoot -18.0167 9.6912
rtoes -1.73754
lfemur -28.1901 -1.76334 -6.22349
ltibia 36.5054
lfoot -33.4984 -4.7815
ltoes -18.4758
309
root 4.0011 19.3785 37.3901 1.40219 72.3752 -11.0035
lowerback 24.9393 -2.82595 -1.36063
upperback 3.64184 -3.91233 -1.04735
thorax -9.81394 -1.70918 0.873705
lowerneck -16.1059 -0.974147 8.22722
upperneck 41.3437 -3.93252 1.89291
head 18.1133 0.348469 -1.23194
rclavicle 4.92986e-014 -1.43125e-014
rhumerus -39.303 -30.3334 30.1045
rradius 52.5158
rwrist -54.9548
rhand -53.7262 -21.9956
rfingers 7.12502
rthumb -26.1612 -50.2131
lclavicle 4.92986e-014 -1.43125e-014
lhumerus -59.7593 15.5119 -4.09327
lradius 40.7192
lwrist 49.7833
lhand -30.4428 41.5492
lfingers 7.12502
lthumb -3.74509 71.4961
rfemur -34.7236 8.38757 11.715
rtibia 36.601
rfoot -21.462 10.8355
rtoes 0.0421555
lfemur -28.7958 -3.51375 -5.73131
ltibia 37.7946
lfoot -36.0086 -4.35365
ltoes -19.6503
310
root 3.94352 19.2784 37.6148 0.17288 73.2093 -11.6239
lowerback 25.4857 -2.90475 -0.97054
upperback 3.5966 -3.89097 -0.847215
thorax -10.1633 -1.69949 0.893408
lowerneck -16.0493 -1.20496 7.83301
upperneck 41.1893 -4.20014 2.06726
head 18.0076 0.201109 -1.13005
rclavicle -3.02153e-014 2.8625e-014
rhumerus -38.8402 -30.6896 28.8565
rradius 53.7148
rwrist -54.3398
rhand -54.3574 -21.3982
rfingers 7.12502
rthumb -26.7654 -49.5247
lclavicle -3.02153e-014 2.8625e-014
lhumerus -58.4761 16.1911 -3.26496
lradius 41.8191
lwrist 51.4208
lhand -31.3219 41.4441
lfingers 7.12502
lthumb -4.59393 71.3743
rfemur -34.4718 9.11888 11.5365
rtibia 37.955
rfoot -23.8438 11.1486
rtoes -0.532901
lfemur -29.1913 -4.82399 -5.519
ltibia 39.0764
lfoot -37.4334 -4.29622
ltoes -21.3434
311
root 3.86603 19.1895 37.8457 -0.7802 73.854 -11.4913
lowerback 26.5851 -2.81155 -1.02967
upperback 3.74507 -3.75629 -0.71795
thorax -10.5567 -1.61221 1.07095
lowerneck -16.2276 -1.43992 7.43223
upperneck 41.006 -4.56012 2.36397
head 17.9566 0.0336813 -0.99139
rclavicle -1.18476e-013 3.97569e-015
rhumerus -38.8134 -31.3026 27.5812
rradius 55.1026
rwrist -53.8086
rhand -55.141 -20.8722
rfingers 7.12502
rthumb -27.515 -48.8817
lclavicle -1.18476e-013 3.97569e-015
lhumerus -56.9701 16.8728 -2.13501
lradius 42.9089
lwrist 52.9067
lhand -32.2697 41.5212
lfingers 7.12502
lthumb -5.50912 71.4296
rfemur -34.3044 9.12826 11.5569
rtibia 39.9276
rfoot -25.4017 10.5687
rtoes -2.73324
lfemur -29.1598 -5.7334 -5.59932
ltibia 40.354
lfoot -38.1503 -4.6177
ltoes -22.1894
312
root 3.78243 19.0886 38.0792 -1.50824 74.0865 -10.6603
lowerback 28.2636 -2.53395 -1.44043
upperback 3.99455 -3.49368 -0.704285
thorax -11.1159 -1.44367 1.29227
lowerneck -16.4732 -1.63118 6.93913
upperneck 40.8916 -4.9122 2.87031
head 17.9851 -0.10926 -0.738628
rclavicle -9.97899e-014 2.62396e-014
rhumerus -38.9007 -32.4355 26.0565
rradius 56.5635
rwrist -53.0248
rhand -55.6505 -19.6678
rfingers 7.12502
rthumb -28.0022 -47.5988
lclavicle -9.97899e-014 2.62396e-014
lhumerus -55.503 17.2642 -0.799186
lradius 44.0911
lwrist 54.0144
lhand -33.0933 41.4827
lfingers 7.12502
lthumb -6.30431 71.3689
rfemur -34.0031 8.81202 11.6615
rtibia 42.2743
rfoot -26.012 10.2182
rtoes -4.49457
lfemur -28.5662 -5.5395 -6.02809
ltibia 41.6904
lfoot -38.3846 -5.23635
ltoes -23.113
313
root 3.70315 18.9952 38.3123 -1.57394 73.9425 -9.68275
lowerback 29.3471 -2.13768 -1.87214
upperback 4.22794 -3.11057 -0.792564
thorax -11.3899 -1.23224 1.33235
lowerneck -16.7508 -1.80062 6.67732
upperneck 40.6559 -5.32556 3.39341
head 17.9537 -0.246128 -0.533997
rclavicle 9.14409e-015 3.97569e-015
rhumerus -39.231 -32.9953 24.0528
rradius 58.1549
rwrist -53.0981
rhand -56.8023 -18.3329
rfingers 7.12502
rthumb -29.1027 -46.0789
lclavicle 9.14409e-015 3.97569e-015
lhumerus -53.9441 17.5702 0.670241
lradius 45.2072
lwrist 54.3019
lhand -33.7796 41.4518
lfingers 7.12502
lthumb -6.96681 71.3172
rfemur -34.3428 8.16774 11.7878
rtibia 44.5564
rfoot -25.7473 10.555
rtoes -5.12381
lfemur -28.381 -5.65116 -6.26667
ltibia 43.0145
lfoot -38.7701 -5.17895
ltoes -23.7166
314
root 3.63616 18.9384 38.5649 0.538308 73.6066 -7.77554
lowerback 28.9719 -1.58745 -2.78795
upperback 4.29743 -2.68818 -0.911028
thorax -11.0915 -1.01141 1.55288
lowerneck -17.1762 -1.90961 6.56225
upperneck 40.3622 -5.6918 3.84419
head 17.9262 -0.354573 -0.384831
rclavicle -8.74653e-015 2.78299e-014
rhumerus -39.4609 -34.1791 21.789
rradius 59.6085
rwrist -52.8352
rhand -57.6762 -16.9974
rfingers 7.12502
rthumb -29.9369 -44.5961
lclavicle -8.74653e-015 2.78299e-014
lhumerus -52.2498 17.6807 2.36213
lradius 46.103
lwrist 53.7018
lhand -34.1357 41.1259
lfingers 7.12502
lthumb -7.31058 70.9796
rfemur -35.9108 7.26819 11.5719
rtibia 46.4663
rfoot -24.9289 10.9885
rtoes -5.35834
lfemur -29.3805 -5.3977 -6.50801
ltibia 44.1828
lfoot -38.8115 -5.19768
ltoes -23.8016
315
root 3.59144 18.9061 38.8229 2.90866 73.3695 -6.13613
lowerback 28.0301 -1.15298 -3.54431
upperback 4.1753 -2.36507 -1.09289
thorax -10.7394 -0.852907 1.64056
lowerneck -17.2866 -2.0254 6.51852
upperneck 40.0632 -6.06553 4.3591
head 17.8199 -0.449525 -0.216913
rclavicle -4.13472e-014 1.98785e-014
rhumerus -39.4844 -34.9421 19.0872
rradius 60.9386
rwrist -52.7379
rhand -58.5169 -15.4897
rfingers 7.12502
rthumb -30.7388 -42.9407
lclavicle -4.13472e-014 1.98785e-014
lhumerus -50.4676 17.3878 4.13103
lradius 46.976
lwrist 52.6973
lhand -34.433 40.8781
lfingers 7.12502
lthumb -7.59753 70.7216
rfemur -37.6652 6.11024 11.43
rtibia 47.8909
rfoot -23.8199 11.537
rtoes -5.09987
lfemur -30.7219 -5.14397 -6.5744
ltibia 45.0682
lfoot -38.4031 -5.70462
ltoes -23.1959
316
root 3.55561 18.8956 39.0784 3.20986 73.1775 -6.48757
lowerback 27.0724 -0.807903 -3.91488
upperback 4.10502 -1.99489 -1.01789
thorax -10.3279 -0.684082 1.78637
lowerneck -17.2422 -2.14172 6.4634
upperneck 39.8461 -6.33238 4.67885
head 17.7088 -0.529928 -0.114265
rclavicle 2.8625e-014 3.97569e-015
rhumerus -38.9731 -35.3916 16.058
rradius 61.9779
rwrist -52.4573
rhand -59.1882 -14.4652
rfingers 7.12502
rthumb -31.3787 -41.7938
lclavicle 2.8625e-014 3.97569e-015
lhumerus -48.7308 16.9589 6.12468
lradius 47.647
lwrist 51.3618
lhand -34.7358 40.8349
lfingers 7.12502
lthumb -7.8898 70.6677
rfemur -38.9248 5.02476 11.9099
rtibia 48.8661
rfoot -22.4842 12.3416
rtoes -3.88594
lfemur -31.7544 -4.69426 -6.00389
ltibia 45.6793
lfoot -37.4388 -6.75919
ltoes -22.171
